<?xml version="1.0" encoding="utf-8"?>
<!-- Generator: Adobe Illustrator 21.0.0, SVG Export Plug-In . SVG Version: 6.00 Build 0)  -->
<svg version="1.1" xmlns="http://www.w3.org/2000/svg" xmlns:xlink="http://www.w3.org/1999/xlink" x="0px" y="0px"
	 viewBox="0 0 12 12" style="enable-background:new 0 0 12 12;" xml:space="preserve">
<style type="text/css">
	.st0{fill:none;stroke:#000000;stroke-miterlimit:10;}
	.st1{fill:#808080;stroke:#FFFFFF;stroke-width:0.2124;stroke-miterlimit:10;}
	.st2{fill:#808080;stroke:#FFFFFF;stroke-width:0.25;stroke-miterlimit:10;}
	.st3{fill:#FFFFFF;stroke:#000000;stroke-width:0.25;stroke-miterlimit:10;}
	.st4{fill:#EC1C24;}
	.st5{fill:#FFFFFF;}
	.st6{opacity:0;}
	.st7{fill:none;stroke:#EB008B;stroke-width:0.25;stroke-miterlimit:10;}
	.st8{clip-path:url(#SVGID_2_);}
</style>
<g id="Letters">
	<path d="M1.6,8.2h3.8L3.9,9.8c0.6,0.4,1.4,0.6,2.2,0.6c1.2,0,2.3-0.5,3.1-1.3c0.8-0.8,1.3-1.8,1.3-3c0,0,0,0,0,0l1.1,0
		c0,0,0,0,0,0.1c0,1.5-0.6,2.8-1.6,3.8c-1,1-2.4,1.6-3.9,1.6c-1.1,0-2.1-0.3-3-0.9L1.6,12L1.6,8.2z M10.4,3.8H6.6l1.6-1.6
		C7.5,1.9,6.8,1.7,6,1.7c-1.2,0-2.3,0.5-3.1,1.3C2.1,3.7,1.6,4.8,1.6,6c0,0,0,0,0,0L0.6,6c0,0,0,0,0-0.1c0-1.5,0.6-2.8,1.6-3.8
		c1-1,2.4-1.6,3.9-1.6c1.1,0,2.1,0.3,3,0.9L10.4,0L10.4,3.8z"/>
</g>
<g id="Guidelines">
</g>
</svg>
