<?xml version="1.0" encoding="utf-8"?>
<!-- Generator: Adobe Illustrator 21.0.0, SVG Export Plug-In . SVG Version: 6.00 Build 0)  -->
<svg version="1.1" xmlns="http://www.w3.org/2000/svg" xmlns:xlink="http://www.w3.org/1999/xlink" x="0px" y="0px"
	 viewBox="0 0 75 100" style="enable-background:new 0 0 75 100;" xml:space="preserve" preserveAspectRatio="none">
<style type="text/css">
	.st0{fill:none;stroke:#000000;stroke-miterlimit:10;}
	.st1{fill:#808080;stroke:#FFFFFF;stroke-width:0.2124;stroke-miterlimit:10;}
	.st2{fill:#808080;stroke:#FFFFFF;stroke-width:0.25;stroke-miterlimit:10;}
	.st3{fill:#FFFFFF;stroke:#000000;stroke-width:0.25;stroke-miterlimit:10;}
	.st4{fill:#EC1C24;}
	.st5{fill:#FFFFFF;}
	.st6{opacity:0;}
	.st7{fill:none;stroke:#EB008B;stroke-width:0.25;stroke-miterlimit:10;}
	.st8{clip-path:url(#SVGID_2_);}
</style>
<g id="Letters">
	<g>
		<defs>
			<rect id="SVGID_1_" x="71" y="111" width="15" height="25"/>
		</defs>
		<clipPath id="SVGID_2_">
			<use xlink:href="#SVGID_1_"  style="overflow:visible;"/>
		</clipPath>
		<polygon class="st8" points="116,81 41,81 41,106 73.5,106 73.5,181 83.5,181 83.5,106 116,106 		"/>
	</g>
	<polygon points="26.3,0 26.3,100 29.5,100 29.5,62.5 49.4,62.5 49.4,37.5 29.5,37.5 29.5,25 50.6,25 50.6,0 	"/>
	<polygon points="24.4,0 0,0 0,25 10.6,25 10.6,100 13.8,100 13.8,25 24.4,25 	"/>
	<path d="M72.6,43.2l1.1-11.9L70.7,0H54.9l-3,31.2l1.1,11.9l-2.4,25.6l3,31.2H72l3-31.2L72.6,43.2z M56,25h13.6l0.6,6.2l-0.6,6.2
		h-1.1H57.1H56l-0.6-6.2L56,25z M70.9,75H54.7l-0.6-6.2l0.6-6.2h0.2h3.5h8.9h3.5h0.2l0.6,6.2L70.9,75z"/>
</g>
<g id="Guidelines">
</g>
</svg>
